<svg id="Layer_1_1_" enable-background="new 0 0 256 256" height="512" viewBox="0 0 256 256" width="512" xmlns="http://www.w3.org/2000/svg"><path d="m150.555 188.878-.824-16.64-43.993-9.411c-.407.337-.589-.035-.995.302l.34 14.848c3.707 1.866 9.761 4.281 19.223 6.541 9.849 2.353 19.346 3.652 26.249 4.36z" fill="#f5d3a6"/><path d="m150.555 188.878-.824-16.64-5.553-1.188c.398 5.922.606 11.72.594 17.158 2.072.267 4.014.489 5.783.67z" fill="#f0c792"/><path d="m105.082 177.978-.133-5.708-.2-.214-6.37-3.978c-.387-.242-.78-.471-1.181-.689-1.502-.814-5.386-2.89-7.652-3.836l-23.932-9.994c-1.577-.659-3.26-.992-4.949-.993l-9.242 4.65c-.669.946-1.949 2.431-2.325 3.56-.601 1.802-.75 3.705-.473 5.557.08.037 6.527 3.018 16.502 6.505l10.441 15.698 33.565 9.82 1.155-18.09c-2.102-.815-3.819-1.59-5.206-2.288z" fill="#514654"/><path d="m65.126 172.839c-10.038-3.509-16.51-6.509-16.51-6.509s1.883 11.577 5.097 17.945 24.75 8.618 24.75 8.618z" fill="#f5d3a6"/><path d="m105.082 177.978-.133-5.708-.2-.214-4.663-2.912c.108 5.221-.12 12.106-1.907 14.213-3 3.536-18.321-1.714-24.429-4.821-6.107-3.107-5.679-7.821-8.464-12.206s-.159 6.509-.159 6.509l10.441 15.698 33.529 9.809.038-.023 1.152-18.057c-2.101-.815-3.818-1.59-5.205-2.288z" fill="#403742"/><path d="m155.097 85.493c-6.132-1.601-13.882-1.493-20.675-1.861l-16.737.352h-5.539l-13.66 30.309c-1.45 2.32-2.519 4.856-3.167 7.514-1.627 6.672-.51 13.717 3.101 19.558 3.957 6.401 6.135 13.736 6.318 21.247l.006.517s13.742 5.823 25.365 8.992c7.362 2.008 14.983.567 19.624.117l-.869-17.55 3.579-33.804z" fill="#7f8b4b"/><path d="m42.143 192.25-22.271 13.514c5.027 6.196 12.56 10.879 19.735 14.006l7.357 2.051 22.179-9.441z" fill="#f0c792"/><path d="m150.555 188.878c-6.903-.708-16.401-2.007-26.251-4.36-9.462-2.26-15.516-4.675-19.223-6.541l.31 13.363c-1.159-.34-1.689-.343-2.875-.585 0 0-20.216-4.125-20.216-4.125-6.903-2.365-13.806-4.729-20.71-7.094-10.154-3.478-22.34-9.782-33.198-8.834-13.695 1.195-16.542 23.235-10.506 32.432.749 1.141 1.546 2.281 2.623 3.118 3.507 2.725 12.544 2.983 16.88 2.983 5.151 0 13.687-2.906 13.687-2.906l31.933 19.062c9.916 5.919 20.986 9.642 32.463 10.917l.511.057c4.882.542 9.823-.095 14.408-1.858 9.898-3.807 17.129-12.453 19.127-22.867 1.142-5.955 1.568-12.025 1.268-18.08z" fill="#514654"/><path d="m150.787 193.558-.232-4.68c-1.769-.182-3.711-.403-5.784-.67-.027 12.001-1.126 22.242-3.629 28.149-4.604 10.866-22.291 15.821-37.102 17.831 3.746.976 7.565 1.69 11.433 2.12l.511.057c4.882.542 9.823-.095 14.408-1.858 9.898-3.807 17.129-12.453 19.127-22.867 1.143-5.956 1.568-12.026 1.268-18.082z" fill="#403742"/><path d="m148.862 154.688 3.579-33.804 2.656-35.39c-6.132-1.601-13.882-1.493-20.675-1.861l-16.737.352h-5.539l-1.887 4.187c6.82 2.406 16.422 8.253 22.528 22.436 5.597 13 10.078 38.778 11.507 62.238 2.057-.205 3.911-.459 5.438-.607z" fill="#727d43"/><path d="m117.684 69.366v17.344c0 4.622 3.747 8.369 8.369 8.369s8.369-3.747 8.369-8.369v-10.212z" fill="#f0c792"/><path d="m116.095 25.982-9.951 18.99c-4.197.052-8.039-2.709-10.291-6.601-3.322-5.739-1.362-13.084 4.377-16.406 5.482-3.172 12.358-1.139 15.865 4.017z" fill="#704c0f"/><path d="m100.228 35.857c.007.013.015.025.022.038.907 1.556 3.228 1.326 3.924-.335 1.856-4.429 4.745-8.378 8.299-10.834.526-.364 1.075-.697 1.633-1.015.738.67 1.412 1.424 1.989 2.271l-9.951 18.99c-.449.006-.892-.034-1.33-.093-.178-.023-.354-.055-.53-.087-.231-.045-.459-.1-.687-.161-.543-.142-1.074-.322-1.591-.551-.003-.001-.007-.002-.01-.004-2.496-1.104-4.664-3.15-6.142-5.702-2.206-3.808-1.981-8.6.32-12.351 1.745-2.846 4.001-4.331 6.371-5.064-4.099 3.72-5.202 9.913-2.317 14.898z" fill="#5e400d"/><path d="m152.638 35.316c1.375 5.692.673 12.212.673 12.212l4.578 7.863-5.079 3.809s.145 7.12-1.438 10.365c-1.805 3.701-7.471 6.926-11 8.558-2.865 1.325-5.841 1.492-8.794 1.006-3.823-.628-7.607-2.348-11.065-4.061-3.684-1.825-6.204-5.891-8.211-9.311-.654-1.114-1.281-2.278-1.876-3.471 4.678-7.915 42.211-26.97 42.212-26.97z" fill="#f5d3a6"/><path d="m140.191 22.22c4.866 1.378 9.909 5.982 11.722 10.728.289.758.528 1.554.725 2.367-.001 0-37.534 19.056-42.212 26.971-1.612-3.232-2.967-6.694-3.815-10.089-2.257-9.044 2.34-21.293 10.012-26.596 6.641-4.589 15.963-5.535 23.568-3.381z" fill="#704c0f"/><g fill="#5e400d"><path d="m131.911 27.901c5.843 2.184 10.077 7.188 12.834 11.562-.41.22-.826.444-1.257.678-2.652-4.174-6.671-8.913-12.066-10.929-5.051-1.889-11.329-2.296-16.566-2.198.571-.506 1.156-.988 1.768-1.411.011-.008.023-.014.034-.022 4.942.027 10.549.562 15.253 2.32z"/><path d="m118.737 43.396c2.548 2.496 5.823 4.351 8.993 5.719-.493.299-.981.599-1.468.899-3.001-1.384-6.045-3.21-8.503-5.617-3.1-3.036-6.135-6.593-8.625-9.71.227-.457.465-.906.714-1.347 2.525 3.187 5.676 6.91 8.889 10.056z"/><path d="m108.043 37.134c1.134 3.695 2.689 7.918 4.627 11.18 1.56 2.626 3.921 4.768 6.295 6.44-.419.291-.821.578-1.22.864-2.361-1.722-4.684-3.904-6.279-6.589-1.706-2.872-3.109-6.397-4.2-9.69.228-.745.493-1.479.777-2.205z"/></g><path d="m152.106 85.041c-3.4 0-6.572 1.708-8.443 4.546-4.684 7.101-4.073 16.451 1.495 22.883l9.557 11.04c.959 1.108 1.666 2.411 2.072 3.82l11.359 39.422 44.377 58.113h35.738c1.853 0 3.356-1.503 3.356-3.356 0-1.545-1.055-2.891-2.555-3.259l-17.52-4.303-16.553-1.761-11.623-22.893-21.132-31.698-6.34-37.685c-1.827-12.103-7.61-23.259-16.447-31.728l-.342-.327c-1.884-1.807-4.391-2.814-6.999-2.814z" fill="#f5d3a6"/><path d="m104.563 191.094 20.08 5.977-15.643-8.863-3.918-10.23z" fill="#403742"/><path d="m105.468 84.864c-3.989.769-8.421 3.325-12.471 6.293-7.253 5.316-13.356 12.044-18.184 19.631l-11.8 18.542-20.4 10.83-14.611 10.104c-7.777 5.378-14.616 11.998-20.246 19.594-2.967 4.003-3.904 9.158-2.536 13.949.487 1.707 1.255 3.321 2.271 4.777l6.93 9.927c.812 1.162 2.175 1.812 3.589 1.709 2.603-.189 4.34-2.768 3.536-5.251l-4.232-13.075 6.949 2.389c.714.245 1.448-.316 1.398-1.07l-1.215-18.225 18.991-5.084c9.583-2.565 18.471-7.242 26.012-13.686l25.867-24.412 16.827-37.823z" fill="#f5d3a6"/><path d="m41.821 190.964c-5.143-.964 9.256 15.365 9.256 15.365l22.143 13.218c-10.505-10.7-27.863-27.92-31.399-28.583z" fill="#403742"/><path d="m59.017 213.879-11.971 4.495c-1.587.596-3.245.982-4.932 1.149l-17.487 1.727c-1.866.276-3.461 1.488-4.227 3.212-.951 2.139-.446 4.645 1.259 6.25l2.2 2.071c.619.583 1.365 1.014 2.178 1.261l6.89 2.088c2.271.688 4.702.632 6.939-.161l22.232-7.88c1.39-.493 2.568-1.449 3.335-2.708l1.317-2.161c1.855-3.044.871-7.017-2.19-8.844-1.677-1.002-3.716-1.185-5.543-.499z" fill="#f5d3a6"/></svg>