<svg id="Layer_1" enable-background="new 0 0 512 512" height="512" viewBox="0 0 512 512" width="512" xmlns="http://www.w3.org/2000/svg"><g><path d="m512 26.052c0-2.079-1.6-3.813-3.672-3.985-48.872-4.065-69.379-12.626-108.974-4.935-14.112 2.741-63.812 22.057-82.486 84.925-7.202 24.247-8.859 51.19-9.121 76.401-.111 10.67-.599 20.225-3.914 29.947-5.734 16.817-41.967 118.573-46.06 127.332-7.46 15.96-18.736 28.057-35.821 32.853-13.086 3.673-36.97 9.302-89.737 23.99-10.523 2.929-87.734 15.489-128.908 22.641-1.917.332-3.307 1.993-3.307 3.938v74.806c0 2.236 1.841 4.038 4.076 3.999 118.853-2.055 188.529-3.982 239.273-14.068 29.676-5.899 65.358-11.767 87.081-33.554 78.956-79.188 107.066-232.083 149.755-240.797 10.268-2.096 18.072 4.079 25.161 10.343 2.585 2.284 6.654.457 6.654-2.992z" fill="#fdba91"/><g><path d="m462.319 16.628c19.981 8.267 34.051 26.002 32.381 60.832l-5.174 69.88c-2.284 30.849-21.36 57.659-49.352 70.847-2.546 1.199-4.821 2.507-6.692 3.917-34.785 26.226-55.001 149.05-133.957 228.238-11.555 11.589-27.957 22.673-45.246 31.4 27.125-5.386 57.04-12.232 76.152-31.4 78.956-79.188 107.066-232.083 149.755-240.797 10.268-2.096 18.072 4.079 25.161 10.343 2.585 2.284 6.654.457 6.654-2.992v-190.844c0-2.078-1.597-3.813-3.668-3.985-18.567-1.544-33.033-3.735-46.014-5.439z" fill="#fc997d"/></g><path d="m299.249 404.381c-6.776-21.054-26.931-31.876-27.786-32.327-3.666-1.931-8.201-.525-10.131 3.139-1.932 3.665-.526 8.201 3.139 10.132.154.082 15.655 8.6 20.499 23.652 1.272 3.951 5.505 6.109 9.438 4.841 3.942-1.269 6.11-5.494 4.841-9.437z" fill="#eb866c"/></g></svg>