<svg id="Layer_1" enable-background="new 0 0 512 512" height="512" viewBox="0 0 512 512" width="512" xmlns="http://www.w3.org/2000/svg"><g><path d="m485.026 512h-44.632c-1.913 0-3.558-1.352-3.926-3.229-3.193-16.31-17.374-90.834-20.044-141.375-.751-14.171 5.338-44.337 3.013-58.333-5.105-30.599-8.581-80.204-23.051-113.344-.844-1.934-3.706-1.407-3.831.7-2.125 35.898-17.651 70.566-27.608 97.143-4.68 12.479-10.799 50.484-10.522 63.799.632 30.805 14.897 92.171 20.542 150.265.228 2.347-1.629 4.374-3.987 4.374h-229.962c-2.358 0-4.215-2.028-3.987-4.374 5.645-58.094 19.91-119.46 20.542-150.265.278-13.315-5.842-51.32-10.522-63.799-9.957-26.578-25.482-61.245-27.608-97.143-.125-2.106-2.986-2.634-3.831-.7-14.47 33.14-17.946 82.745-23.051 113.344-2.324 13.995 3.764 44.162 3.013 58.333-2.671 50.542-16.851 125.065-20.044 141.375-.368 1.878-2.012 3.229-3.926 3.229h-44.63c-2.101 0-3.843-1.621-3.99-3.717-1.289-18.34-6.705-100.631-4.433-158.503 2.211-56.002 15.222-89.108 15.602-99.483 1.687-45.255 8.351-89.438 7.59-107.817-1.008-24.721-.555-52.732 17.505-69.595 28.922-27.021 111.551-25.165 127.74-32.209 14.961-6.5 28.033-20.717 28.339-36.707.041-2.196 1.796-3.969 3.993-3.969h73.36c2.197 0 3.952 1.773 3.993 3.969.306 15.99 13.378 30.207 28.339 36.707 16.189 7.044 98.818 5.188 127.74 32.209 18.06 16.863 18.513 44.874 17.505 69.595-.761 18.379 5.904 62.561 7.59 107.817.381 10.375 13.391 43.481 15.602 99.483 2.273 57.872-3.143 140.163-4.433 158.503-.146 2.096-1.889 3.717-3.99 3.717z" fill="#fdba91"/><path d="m485.025 512h-44.627c-1.913 0-3.558-1.352-3.926-3.229-3.194-16.309-17.376-90.832-20.043-141.371-.75-14.18 5.331-44.34 3.01-58.34-5.101-30.6-8.581-80.2-23.053-113.34-.84-1.94-3.7-1.41-3.83.7-2.12 35.9-17.652 70.56-27.603 97.14-4.681 12.48-10.801 50.49-10.521 63.8.624 30.806 14.896 92.176 20.534 150.266.228 2.347-1.629 4.374-3.987 4.374h-229.957c-2.358 0-4.215-2.027-3.987-4.374 5.638-58.091 19.91-119.46 20.534-150.266.28-13.31-5.841-51.32-10.521-63.8-9.951-26.58-25.483-61.24-27.603-97.14-.13-2.11-2.99-2.64-3.83-.7-14.472 33.14-17.952 82.74-23.053 113.34-2.32 14 3.76 44.16 3.01 58.34-2.668 50.539-16.85 125.061-20.043 141.371-.369 1.877-2.013 3.229-3.927 3.229h-44.627c-2.101 0-3.843-1.621-3.99-3.717-1.289-18.34-6.705-100.631-4.433-158.503 2.21-56 15.222-89.11 15.602-99.48 1.69-45.26 8.351-89.44 7.591-107.82-1.01-24.72-.56-52.73 17.502-69.6 28.923-27.02 111.553-25.16 127.745-32.2 14.954-6.506 28.029-20.723 28.333-36.71.042-2.197 1.796-3.97 3.994-3.97h73.364c2.197 0 3.952 1.773 3.993 3.97.303 15.987 13.379 30.204 28.333 36.71 16.192 7.04 98.822 5.18 127.745 32.2 18.062 16.87 18.512 44.88 17.502 69.6-.76 18.38 5.901 62.56 7.591 107.82.38 10.37 13.392 43.48 15.602 99.48 2.272 57.872-3.144 140.163-4.433 158.503-.148 2.096-1.891 3.717-3.991 3.717z" fill="#fdba91"/><g fill="#fc997d"><path d="m95.575 367.395c.751-14.171-5.338-44.338-3.013-58.333 5.006-30.005 8.445-78.284 22.22-111.394 1.536-3.693-1.945-7.496-5.769-6.323-14.749 4.524-17.287 7.495-30.37 39.985-12.285 38.062-11.488 44.75-16.99 77.733-2.324 13.995 3.764 44.162 3.014 58.333-3.015 57.033-20.684 144.604-20.684 144.604h27.623c1.913 0 3.558-1.352 3.926-3.229 3.192-16.31 17.372-90.834 20.043-141.376z"/><path d="m297.419 33.438c3.408 0 9.19.195 16.499.701-9.796-7.48-17.013-18.332-17.244-30.159-.043-2.201-1.794-3.98-3.995-3.98h-26.725c-2.017 17.574 7.738 33.438 31.465 33.438z"/><path d="m354.427 357.36c-.278-13.315 5.842-51.32 10.521-63.799 9.847-26.284 25.14-60.481 27.532-95.955.345-5.116-6.025-7.77-9.34-3.858-15.792 18.642-40.508 76.876-49.102 99.813-4.68 12.479-10.799 50.484-10.521 63.799.648 31.58 15.623 95.275 20.95 154.64h26.513c2.358 0 4.215-2.028 3.987-4.374-5.643-58.095-19.908-119.46-20.54-150.266z"/><path d="m493.45 349.78c-2.211-56.002-15.222-89.108-15.602-99.483-1.687-45.256-8.351-89.438-7.59-107.817 1.008-24.721.555-52.732-17.505-69.595-10.731-10.026-28.857-16.074-48.238-20.078 8.176 3.606 15.303 7.849 20.644 12.84 18.06 16.863 15.198 52.112 14.19 76.833-.761 18.379 5.904 62.561 7.59 107.817.381 10.375 13.391 43.481 15.602 99.483 2.571 65.48-4.7 162.22-4.7 162.22h27.186c2.101 0 3.843-1.621 3.99-3.717 1.289-18.34 6.705-100.631 4.433-158.503z"/></g><g fill="#eb866c"><g><path d="m226.719 111.07c-4.026-.955-8.071 1.53-9.033 5.556-.121.507-12.534 51.09-48.918 86.708-2.96 2.898-3.01 7.646-.112 10.606 2.898 2.959 7.646 3.01 10.607.112 39.565-38.732 52.487-91.722 53.018-93.958.956-4.028-1.534-8.065-5.562-9.024z"/><path d="m350.882 203.334c-36.272-35.509-48.721-85.893-48.916-86.702-.956-4.03-4.998-6.519-9.03-5.566-4.031.957-6.523 4.999-5.567 9.029.531 2.236 13.453 55.226 53.017 93.958 2.96 2.897 7.708 2.848 10.607-.112 2.899-2.961 2.849-7.709-.111-10.607z"/></g><path d="m263.501 266.98v245.02h-15.002v-245.02c0-4.14 3.36-7.5 7.501-7.5s7.501 3.36 7.501 7.5z"/></g></g></svg>