<svg id="Layer_1" enable-background="new 0 0 512 512" height="512" viewBox="0 0 512 512" width="512" xmlns="http://www.w3.org/2000/svg"><g><g><path d="m485.657 138.343-8-8c-1.5-1.5-3.535-2.343-5.657-2.343h-200v-16c13.255 0 24-10.745 24-24v-8c4.418 0 8-3.582 8-8v-8c0-4.418-3.582-8-8-8v-16c0-13.255-10.745-24-24-24h-32c-13.255 0-24 10.745-24 24v16c-4.418 0-8 3.582-8 8v8c0 4.418 3.582 8 8 8v8c0 13.255 10.745 24 24 24v16h-200c-2.122 0-4.157.843-5.657 2.343l-8 8c-3.125 3.124-3.125 8.189 0 11.313 1.562 1.563 3.61 2.344 5.657 2.344s4.095-.781 5.657-2.343l5.656-5.657h12.687c-4.418 0-8 3.582-8 8s3.582 8 8 8h8.697c1.649 4.658 6.08 8 11.303 8h116v304h-4c-6.627 0-12 5.373-12 12s5.373 12 12 12h40c6.627 0 12-5.373 12-12v-164h32v164c0 6.627 5.373 12 12 12h40c6.627 0 12-5.373 12-12s-5.373-12-12-12h-4v-304h116c5.223 0 9.654-3.342 11.302-8h8.698c4.418 0 8-3.582 8-8s-3.582-8-8-8h12.687l5.657 5.657c1.562 1.562 3.609 2.343 5.657 2.343s4.095-.781 5.657-2.343c3.123-3.124 3.123-8.19-.001-11.314z" fill="#f0915a"/></g><g><path d="m272 64h-32c-8.837 0-16-7.163-16-16v-8c0-8.837 7.163-16 16-16h32c8.837 0 16 7.163 16 16v8c0 8.837-7.163 16-16 16z" fill="#fac3c8"/></g><g><path d="m264 72h-16c-4.418 0-8-3.582-8-8h32c0 4.418-3.582 8-8 8z" fill="#d76e8c"/></g><g fill="#fad741"><path d="m432 140h-352c-2.209 0-4 1.791-4 4s1.791 4 4 4h108v1.333c0 2.206-1.794 4-4 4h-16c-2.209 0-4 1.791-4 4s1.791 4 4 4h16c6.617 0 12-5.383 12-12v-1.333h120v1.333c0 6.617 5.383 12 12 12h16c2.209 0 4-1.791 4-4s-1.791-4-4-4h-16c-2.206 0-4-1.794-4-4v-1.333h108c2.209 0 4-1.791 4-4s-1.791-4-4-4z"/><path d="m226.829 170.828c4.403-4.403 10.257-6.828 16.485-6.828h25.373c6.228 0 12.082 2.425 16.485 6.828.78.781 1.805 1.172 2.828 1.172s2.048-.391 2.828-1.171c1.563-1.562 1.563-4.095 0-5.657-5.914-5.914-13.777-9.172-22.142-9.172h-25.373c-8.364 0-16.228 3.257-22.142 9.172-1.562 1.562-1.562 4.095 0 5.657.782.781 1.805 1.171 2.829 1.171s2.047-.391 2.829-1.172z"/><path d="m212.525 186.829c.781.781 1.804 1.171 2.828 1.171s2.047-.391 2.829-1.172c4.403-4.403 10.257-6.828 16.485-6.828h42.667c6.228 0 12.082 2.425 16.486 6.829.781.781 1.805 1.171 2.828 1.171s2.048-.391 2.829-1.172c1.562-1.562 1.562-4.095-.001-5.657-5.915-5.914-13.778-9.171-22.143-9.171h-42.667c-8.364 0-16.228 3.257-22.142 9.172-1.562 1.562-1.562 4.094.001 5.657z"/><path d="m204.525 202.829c.781.781 1.805 1.171 2.828 1.171 1.024 0 2.047-.391 2.829-1.172 4.403-4.403 10.257-6.828 16.485-6.828h58.667c6.228 0 12.082 2.425 16.486 6.829.781.781 1.805 1.171 2.828 1.171s2.048-.391 2.829-1.172c1.562-1.562 1.562-4.095-.001-5.657-5.915-5.914-13.778-9.171-22.143-9.171h-58.667c-8.364 0-16.228 3.257-22.142 9.172-1.562 1.562-1.562 4.094.001 5.657z"/><path d="m204.525 218.829c.781.781 1.805 1.171 2.828 1.171 1.024 0 2.047-.391 2.829-1.172 4.403-4.403 10.257-6.828 16.485-6.828h58.667c6.228 0 12.082 2.425 16.486 6.829.781.781 1.805 1.171 2.828 1.171s2.048-.391 2.829-1.172c1.562-1.562 1.562-4.095-.001-5.657-5.915-5.914-13.778-9.171-22.143-9.171h-58.667c-8.364 0-16.228 3.257-22.142 9.172-1.562 1.562-1.562 4.094.001 5.657z"/><path d="m204.525 234.829c.781.781 1.805 1.171 2.828 1.171 1.024 0 2.047-.391 2.829-1.172 4.403-4.403 10.257-6.828 16.485-6.828h58.667c6.228 0 12.082 2.425 16.486 6.829.781.781 1.805 1.171 2.828 1.171s2.048-.391 2.829-1.172c1.562-1.562 1.562-4.095-.001-5.657-5.915-5.914-13.778-9.171-22.143-9.171h-58.667c-8.364 0-16.228 3.257-22.142 9.172-1.562 1.562-1.562 4.094.001 5.657z"/><path d="m301.333 364h-1.333v-40c0-13.234-10.767-24-24-24-8.822 0-16-7.177-16-16v-8h12c2.209 0 4-1.791 4-4s-1.791-4-4-4h-12v-8h20c2.209 0 4-1.791 4-4s-1.791-4-4-4h-20v-12c0-2.209-1.791-4-4-4s-4 1.791-4 4v12h-20c-2.209 0-4 1.791-4 4s1.791 4 4 4h20v8h-12c-2.209 0-4 1.791-4 4s1.791 4 4 4h12v8c0 8.823-7.178 16-16 16-13.233 0-24 10.766-24 24v40h-1.333c-6.617 0-12 5.383-12 12v8c0 2.209 1.791 4 4 4s4-1.791 4-4v-8c0-2.206 1.794-4 4-4h1.333v56h-1.333c-6.617 0-12 5.383-12 12v8c0 2.209 1.791 4 4 4s4-1.791 4-4v-8c0-2.206 1.794-4 4-4h1.333v44c0 2.209 1.791 4 4 4s4-1.791 4-4v-76h1.333c2.206 0 4 1.794 4 4v8c0 2.209 1.791 4 4 4s4-1.791 4-4v-8c0-6.617-5.383-12-12-12h-1.333v-72c0-8.823 7.178-16 16-16 8.34 0 15.697-4.278 20-10.754 4.303 6.475 11.66 10.754 20 10.754 8.822 0 16 7.177 16 16v72h-1.333c-6.617 0-12 5.383-12 12v8c0 2.209 1.791 4 4 4s4-1.791 4-4v-8c0-2.206 1.794-4 4-4h1.333v76c0 2.209 1.791 4 4 4s4-1.791 4-4v-44h1.333c2.206 0 4 1.794 4 4v8c0 2.209 1.791 4 4 4s4-1.791 4-4v-8c0-6.617-5.383-12-12-12h-1.333v-56h1.333c2.206 0 4 1.794 4 4v8c0 2.209 1.791 4 4 4s4-1.791 4-4v-8c0-6.617-5.383-12-12-12z"/></g><g><path d="m256 244c-2.209 0-4-1.791-4-4v-168c0-2.209 1.791-4 4-4s4 1.791 4 4v168c0 2.209-1.791 4-4 4z" fill="#d76e8c"/></g></g></svg>