<svg id="Layer_1" enable-background="new 0 0 512 512" height="512" viewBox="0 0 512 512" width="512" xmlns="http://www.w3.org/2000/svg"><g><path d="m210.084 511.617c24.344 3.328 46.048-15.557 46.048-40.177v-421.539c-.33-22.361-17.658-43.065-39.478-47.761-44.907-9.664-86.184 14.438-96.475 51.401-10.502 37.723-65.439 38.791-65.439 110.214 0 75.066-66.38 84.339-37.428 186.564 10.986 38.79 50.168 68.16 70.588 107.48 19.174 36.92 81.857 48.306 122.184 53.818z" fill="#fa6f5f"/><path d="m216.654 2.14c-12.164-2.618-24.055-2.74-35.144-.817 1.418.239 2.839.511 4.265.818 21.82 4.696 39.148 25.4 39.478 47.76l-3.022 207.296c-.473 32.463-15.7 62.941-41.365 82.797l-6.391 4.944s27.738 4.658 40.828 27.683 9.95 98.82 9.95 98.82c0 18.042-11.662 32.992-27.471 38.389 4.27.663 8.392 1.254 12.301 1.788 24.344 3.328 46.048-15.557 46.048-40.176v-421.541c-.329-22.361-17.657-43.065-39.477-47.761z" fill="#eb5e4e"/><path d="m301.917 511.617c-24.344 3.328-46.048-15.557-46.048-40.177v-421.539c.33-22.361 17.658-43.065 39.478-47.761 44.906-9.664 86.184 14.438 96.475 51.401 10.502 37.723 65.439 38.791 65.439 110.214 0 75.066 66.38 84.339 37.428 186.564-10.986 38.79-50.168 68.16-70.588 107.48-19.174 36.92-81.857 48.306-122.184 53.818z" fill="#fa6f5f"/><path d="m494.69 350.319c-.38 1.35-.8 2.69-1.25 4.02-4.8 14.22-13.29 27.22-23.04 40l-.01.01c-15.38 20.18-33.88 39.82-45.99 62.88-.1.19-.2.38-.3.57-3.1 5.98-7.35 11.29-12.46 16-26.43 24.46-75.93 33.2-109.72 37.82-19.078 2.608-36.527-8.419-43.19-25.154-.976-2.452-4.484-2.452-5.46 0-6.663 16.735-24.112 27.762-43.19 25.154-33.79-4.62-83.29-13.36-109.72-37.82-5.11-4.71-9.36-10.02-12.46-16-.1-.19-.2-.38-.3-.57-12.11-23.06-30.61-42.7-45.99-62.88l-.01-.01c-9.74-12.78-18.23-25.77-23.03-39.98-.46-1.34-.88-2.68-1.26-4.04-26.14-92.3 25.43-108.82 35.69-166.4 1.11-6.2 1.74-12.87 1.74-20.16 0-8.11.71-15.29 1.98-21.74 0-.01 0-.01 0-.02 7.1-36.04 31.75-48.68 48.62-65.2 6.71-6.56 12.19-13.74 14.84-23.26.16-.56.33-1.13.5-1.69.01-.01.01-.02.01-.02 11.06-35.99 51.76-59.2 95.96-49.69 16.194 3.489 29.909 15.785 36.042 31.031 1.19 2.958 5.426 2.958 6.615 0 6.133-15.247 19.848-27.542 36.042-31.031 43.95-9.46 84.44 13.44 95.77 49.08.25.77.48 1.54.7 2.32 2.64 9.49 8.1 16.67 14.79 23.22 16.95 16.62 41.8 29.28 48.77 65.74 1.21 6.32 1.88 13.36 1.88 21.26 0 7.32.63 14.01 1.75 20.22 10.281 57.53 61.81 74.07 35.681 166.34z" fill="#fa6f5f"/><path d="m457.26 163.755c0-71.423-54.937-72.491-65.439-110.214-9.964-35.789-48.979-59.519-92.209-52.218 29.845 5.173 53.828 25.268 61.331 52.218 10.502 37.723 65.439 38.791 65.439 110.214 0 75.066 66.38 84.339 37.428 186.564-10.986 38.79-50.168 68.16-70.588 107.48-17.315 33.341-70.11 45.857-109.882 52.03 5.763 1.968 12.073 2.677 18.577 1.788 40.327-5.513 103.01-16.898 122.184-53.818 20.42-39.32 59.602-68.69 70.588-107.48 28.951-102.225-37.429-111.498-37.429-186.564z" fill="#eb5e4e"/><g fill="#db423b"><path d="m152.361 127.28c-1.92 3.709-6.503 5.092-10.11 3.19-21.25-11.05-33.93-29.53-36.91-53.67 6.71-6.56 12.19-13.74 14.84-23.26.16-.56.33-1.13.5-1.69-.79 5.28-1.33 11.83-.87 18.82 1.4 21.45 11.28 37.09 29.36 46.49 3.67 1.91 5.1 6.44 3.19 10.12z"/><path d="m104.521 221.619c-1.835 3.697-6.322 5.246-10.05 3.4-21.2-10.47-33.88-26.15-41.47-41.1 1.11-6.2 1.74-12.87 1.74-20.16 0-8.11.71-15.29 1.98-21.74.16 2.91 1.09 13.96 6.05 26.8 7.54 19.52 20.45 33.9 38.35 42.75 3.71 1.84 5.23 6.33 3.4 10.05z"/><path d="m107.791 385.289c-20.403 10.605-44.541 17.11-66.18 9.06l-.01-.01c-9.74-12.78-18.23-25.77-23.03-39.98l17.89 19.8c.76.79 20.43 20.69 64.41-2.18 3.67-1.91 8.2-.48 10.11 3.19 1.91 3.68.48 8.2-3.19 10.12z"/><path d="m197.591 406.049c-8.77 41.76-37.4 57.78-59.87 63.87-12.106 3.289-25.024 4.44-37.36 3.88-5.11-4.71-9.36-10.02-12.46-16-.1-.19-.2-.38-.3-.57l6.41.98c.19.03 19.57 2.83 40.22-2.88 26.54-7.34 42.92-24.96 48.68-52.37.86-4.05 4.83-6.65 8.89-5.79 4.05.85 6.64 4.82 5.79 8.88z"/><path d="m131.787 167.066c-2.997 2.859-3.109 7.606-.25 10.603 6.764 7.093 25.261 27.876 29.563 38.726 4.702 11.859.59 44.162-24.341 66.321-12.126 10.778-32.184 11.169-46.878 9.598-16.735-1.789-30.575-6.501-30.908-6.616-3.913-1.36-8.187.71-9.546 4.623s.71 8.186 4.623 9.546c1.522.529 23.808 8.116 47.955 8.116 15.9 0 32.609-3.291 44.719-14.055 29.554-26.267 35.436-65.117 28.32-83.062-6.151-15.511-29.959-40.727-32.654-43.551-2.86-2.997-7.606-3.107-10.603-.249z"/><path d="m185.824 75.04c.612.182 59.601 18.738 62.674 102.621-.078 2.291-.131 4.61-.129 6.988.002 4.141 3.36 7.496 7.5 7.496h.263c4.14 0 7.498-3.355 7.5-7.496.002-2.437-.053-4.811-.135-7.155 1.246-34.257 11.723-61.676 31.194-81.575 15.464-15.805 31.231-20.8 31.51-20.887 3.955-1.192 6.204-5.359 5.024-9.321-1.181-3.97-5.355-6.23-9.328-5.049-.771.229-19.096 5.832-37.284 24.113-10.094 10.146-21.36 25.585-28.613 47.961-7.253-22.377-18.519-37.815-28.613-47.961-18.187-18.282-36.513-23.884-37.284-24.113-3.971-1.18-8.146 1.08-9.328 5.049-1.181 3.971 1.08 8.148 5.049 9.329z"/><path d="m406.61 76.76c-2.93 24.16-15.6 42.66-36.86 53.71-3.605 1.901-8.189.522-10.11-3.19-1.91-3.68-.48-8.21 3.19-10.12 18.07-9.39 27.93-25.04 29.3-46.48.46-7.28-.15-14.08-1.01-19.46.25.77.48 1.54.7 2.32 2.64 9.49 8.1 16.67 14.79 23.22z"/><path d="m459.01 183.979c-7.62 14.93-20.32 30.58-41.48 41.04-3.728 1.847-8.216.297-10.05-3.4-1.83-3.72-.31-8.21 3.4-10.05 39.33-19.43 43.97-61.37 44.5-69.07 1.21 6.32 1.88 13.36 1.88 21.26 0 7.32.63 14.011 1.75 20.22z"/><path d="m493.44 354.339c-4.8 14.22-13.29 27.22-23.04 40l-.01.01c-21.621 8.044-45.735 1.561-66.18-9.06-3.67-1.92-5.1-6.44-3.19-10.12 1.91-3.67 6.44-5.11 10.11-3.19 43.98 22.86 63.65 2.97 64.47 2.11z"/><path d="m424.4 457.229c-.1.19-.2.38-.3.57-3.1 5.98-7.35 11.29-12.46 16-12.4.562-25.296-.606-37.36-3.88-22.47-6.09-51.1-22.11-59.87-63.87-.85-4.06 1.74-8.03 5.79-8.88 4.06-.85 8.04 1.74 8.89 5.79 5.76 27.41 22.14 45.03 48.68 52.37 20.66 5.71 40.03 2.91 40.23 2.88z"/><path d="m365.544 355.735c2.151-3.54 1.025-8.153-2.515-10.304-3.595-2.185-35.748-21.346-57.631-20.809-28.823.686-42.746 15.193-49.398 27.623-6.652-12.43-20.574-26.938-49.398-27.623-21.852-.536-54.035 18.624-57.631 20.809-3.539 2.151-4.665 6.762-2.515 10.302 2.149 3.54 6.762 4.667 10.302 2.519 8.739-5.302 34.629-19.011 49.487-18.633 26.014.618 42.123 15.63 42.123 44.896 0 4.142 3.358 7.5 7.5 7.5.044 0 .087-.006.131-.007.044.001.087.007.131.007 4.142 0 7.5-3.358 7.5-7.5 0-29.266 16.108-44.278 42.123-44.896 14.831-.387 40.748 13.331 49.485 18.632 3.541 2.149 8.155 1.024 10.306-2.516z"/><path d="m365.278 293.929c12.112 10.765 28.817 14.055 44.719 14.055 24.144 0 46.433-7.587 47.955-8.116 3.913-1.36 5.982-5.634 4.623-9.546-1.36-3.913-5.635-5.983-9.546-4.623-14.883 5.172-57.871 14.718-77.786-2.982-24.931-22.159-29.043-54.462-24.341-66.321 4.302-10.851 22.799-31.634 29.563-38.726 2.858-2.998 2.747-7.745-.25-10.603-2.996-2.857-7.743-2.747-10.603.25-2.695 2.824-26.503 28.04-32.654 43.551-7.116 17.944-1.234 56.794 28.32 83.061z"/></g></g></svg>