<svg id="Capa_1" enable-background="new 0 0 512 512" height="512" viewBox="0 0 512 512" width="512" xmlns="http://www.w3.org/2000/svg"><g><path d="m511.463 242.443c2.225 6.665-2.74 13.557-9.766 13.557h-197.927c-2.06 0-3.966-.598-5.573-1.638-2.843-1.834-4.729-5.027-4.729-8.664v-177.016h208.229c7.026 0 11.991 6.892 9.766 13.557l-25.61 76.841c-.711 2.122-.711 4.399 0 6.521z" fill="#dd5790"/><path d="m293.463 241.431h110.309c11.495 0 20.813-9.318 20.813-20.813v-151.935h-131.122z" fill="#da387d"/><path d="m398.618 218.532c-1.071 1.061-2.38 1.885-3.863 2.4l-96.559 33.429c-2.843-1.834-4.729-5.027-4.729-8.664v-27.166h105.151z" fill="#d80a61"/><path d="m391.386 31.215c5.69 0 10.302 4.612 10.302 10.302v169.681c0 2.823-1.154 5.45-3.07 7.335h-173.832v-187.318z" fill="#dd5790"/><path d="m33.301 305.951v157.223h-22.999c-5.69 0-10.302-4.612-10.302-10.302v-136.619c0-5.69 4.612-10.302 10.302-10.302z" fill="#c8ea73"/><path d="m0 384.896v67.976c0 5.69 4.612 10.302 10.302 10.302h22.999v-58.542c-12.964-4.277-24.311-10.877-33.301-19.736z" fill="#b7e445"/><path d="m214.374 512h-20.813c-5.747 0-10.407-4.659-10.407-10.406v-491.187c0-5.748 4.66-10.407 10.407-10.407h20.813c5.747 0 10.407 4.659 10.407 10.407v491.187c-.001 5.747-4.66 10.406-10.407 10.406z" fill="#4073c8"/><path d="m214.374 512h-20.813c-5.747 0-10.407-4.659-10.407-10.406v-231.025h41.626v231.024c0 5.748-4.659 10.407-10.406 10.407z" fill="#30579d"/><path d="m286.721 338.211h-20.314c11.747 0 21.221-9.731 20.799-21.572-.401-11.278-10.013-20.054-21.298-20.054h-82.753v-41.626h-27.681c-9.049 0-17.852 2.949-25.075 8.4l-45.307 34.192c-7.223 5.451-16.026 8.4-25.075 8.4h-26.716v157.223l211.794-.085c11.285 0 20.897-8.776 21.298-20.054.421-11.841-9.053-21.572-20.8-21.572h20.314c11.285 0 20.897-8.776 21.298-20.054.421-11.841-9.053-21.572-20.799-21.572h20.813c11.747 0 21.221-9.731 20.799-21.572-.4-11.278-10.012-20.054-21.297-20.054z" fill="#f1d0a5"/><path d="m286.721 338.211h-20.314c11.747 0 21.221-9.731 20.799-21.572-.401-11.278-10.013-20.054-21.298-20.054h-22.255c-12.054 32.571-39.873 64.94-78.895 87.469-45.457 26.245-94.876 32.648-131.456 20.578v58.542l211.794-.085c11.285 0 20.897-8.776 21.298-20.054.421-11.841-9.053-21.572-20.799-21.572h20.314c11.285 0 20.897-8.776 21.298-20.054.421-11.841-9.053-21.572-20.799-21.572h20.813c11.747 0 21.221-9.731 20.799-21.572-.402-11.278-10.014-20.054-21.299-20.054z" fill="#f1b986"/><g><path d="m286.514 322.756c-2.359 8.901-10.477 15.453-20.109 15.453h-83.249c-4.265 0-7.726-3.462-7.726-7.726 0-4.265 3.461-7.726 7.726-7.726h103.358z" fill="#d5985c"/></g><g><path d="m307.313 364.427c-2.38 8.87-10.467 15.411-20.099 15.411h-20.81c.412 0 .824.01 1.226.041h-84.475c-4.265 0-7.726-3.461-7.726-7.726s3.461-7.726 7.726-7.726z" fill="#d5985c"/></g><g><path d="m286.504 406.015c-2.452 8.973-10.91 15.453-20.593 15.453h-82.754c-4.265 0-7.726-3.461-7.726-7.726 0-4.275 3.461-7.726 7.726-7.726h103.347z" fill="#d5985c"/></g></g></svg>