<svg id="color_line" height="512" viewBox="0 0 74 74" width="512" xmlns="http://www.w3.org/2000/svg" data-name="color line"><path d="m67.97 48.5a.5.5 0 0 1 -.5-.5v-.583a.5.5 0 0 1 1 0v.583a.5.5 0 0 1 -.5.5z" fill="#323c6b"/><path d="m67.97 44.083a.5.5 0 0 1 -.5-.5v-12.666a.5.5 0 0 1 1 0v12.666a.5.5 0 0 1 -.5.5z" fill="#323c6b"/><path d="m64.97 17.4v45.69h-55.94v-45.69s13.89-7.4 27.97 0a27.593 27.593 0 0 0 6.19 2.38l-1.33 1.4a1.2 1.2 0 0 0 .04 1.69l9.04 8.62a1.189 1.189 0 0 0 1.69-.04l8.61-9.03a1.189 1.189 0 0 0 -.04-1.69l-1.43-1.36a29.383 29.383 0 0 0 5.2-1.97z" fill="#69b0ee"/><path d="m64.97 63.59h-55.94a.5.5 0 0 1 -.5-.5v-45.69a.5.5 0 0 1 .265-.441c.141-.075 14.288-7.439 28.438 0a27.193 27.193 0 0 0 6.08 2.337.5.5 0 0 1 .24.829l-1.33 1.4a.713.713 0 0 0 -.191.5.672.672 0 0 0 .211.479l9.043 8.623a.689.689 0 0 0 .983-.024l8.609-9.03a.689.689 0 0 0 -.023-.984l-1.43-1.358a.5.5 0 0 1 .207-.843 29.237 29.237 0 0 0 5.1-1.931.5.5 0 0 1 .734.442v45.691a.5.5 0 0 1 -.496.5zm-55.439-1h54.939v-44.39a32.15 32.15 0 0 1 -3.73 1.406l.806.765a1.7 1.7 0 0 1 .057 2.4l-8.611 9.029a1.7 1.7 0 0 1 -1.187.527 1.746 1.746 0 0 1 -1.21-.472l-9.039-8.619a1.658 1.658 0 0 1 -.524-1.186 1.709 1.709 0 0 1 .465-1.208l.753-.792a28.239 28.239 0 0 1 -5.482-2.2c-12.638-6.65-25.268-1.09-27.238-.141z" fill="#323c6b"/><path d="m61.97 18.663v44.427h3v-45.69a25.167 25.167 0 0 1 -3 1.263z" fill="#419be9"/><path d="m18.583.5h-.583a.5.5 0 0 1 -.5-.5.5.5 0 0 1 .5-.5h.583a.5.5 0 0 1 .5.5.5.5 0 0 1 -.5.5z" fill="#323c6b"/><path d="m6.03 4.833a.5.5 0 0 1 -.5-.5v-4.333a.5.5 0 0 1 .5-.5h8.053a.5.5 0 0 1 .5.5.5.5 0 0 1 -.5.5h-7.553v3.833a.5.5 0 0 1 -.5.5z" fill="#323c6b"/><path d="m64.97 3v14.4a29.383 29.383 0 0 1 -5.2 1.97l-7.61-7.26a1.208 1.208 0 0 0 -1.69.04l-7.28 7.63a27.593 27.593 0 0 1 -6.19-2.38c-14.08-7.4-27.97 0-27.97 0v-14.4z" fill="#eeefee"/><path d="m43.19 20.28a.5.5 0 0 1 -.122-.015 28.152 28.152 0 0 1 -6.3-2.423c-13.689-7.193-27.364-.073-27.5 0a.5.5 0 0 1 -.738-.442v-14.4a.5.5 0 0 1 .5-.5h55.94a.5.5 0 0 1 .5.5v14.4a.5.5 0 0 1 -.266.442 29.677 29.677 0 0 1 -5.3 2.009.5.5 0 0 1 -.482-.119l-7.609-7.26a.706.706 0 0 0 -.988.028l-7.275 7.625a.5.5 0 0 1 -.36.155zm-19.65-6.644a29.141 29.141 0 0 1 13.692 3.322 27.22 27.22 0 0 0 5.8 2.265l7.076-7.423a1.7 1.7 0 0 1 2.394-.06l7.4 7.065a30.761 30.761 0 0 0 4.563-1.719v-13.586h-54.935v13.108a35.468 35.468 0 0 1 14.01-2.972z" fill="#323c6b"/><path d="m9.03 16.135v1.265a33.564 33.564 0 0 1 12.9-3.25 34.262 34.262 0 0 0 -12.9 1.985z" fill="#dbd8dd"/><path d="m61.97 3v14.4a25.215 25.215 0 0 1 -2.957 1.247l.758.723a29.383 29.383 0 0 0 5.2-1.97v-14.4z" fill="#dbd8dd"/><path d="m51.763 32.323a1.678 1.678 0 0 1 -1.168-.472l-9.039-8.619a1.658 1.658 0 0 1 -.524-1.186 1.709 1.709 0 0 1 .465-1.208l8.611-9.038a1.7 1.7 0 0 1 2.394-.06l9.043 8.623a1.7 1.7 0 0 1 .057 2.4l-8.61 9.037a1.7 1.7 0 0 1 -1.187.527zm-.425-20.041a.715.715 0 0 0 -.511.217l-8.6 9.025a.713.713 0 0 0 -.191.5.672.672 0 0 0 .211.479l9.043 8.623a.689.689 0 0 0 .983-.024l8.609-9.029a.689.689 0 0 0 -.024-.983l-9.039-8.619a.7.7 0 0 0 -.481-.188z" fill="#323c6b"/><path d="m64.97 63.09v1.16a6.745 6.745 0 0 1 -6.74 6.75h-42.46a6.745 6.745 0 0 1 -6.74-6.75v-1.16z" fill="#eeefee"/><path d="m58.23 71.5h-42.46a7.253 7.253 0 0 1 -7.24-7.25v-1.16a.5.5 0 0 1 .5-.5h55.94a.5.5 0 0 1 .5.5v1.16a7.253 7.253 0 0 1 -7.24 7.25zm-48.7-7.91v.66a6.252 6.252 0 0 0 6.24 6.25h42.46a6.252 6.252 0 0 0 6.239-6.25v-.66z" fill="#323c6b"/><path d="m61.97 63.09v1.16a6.745 6.745 0 0 1 -6.74 6.75h3a6.745 6.745 0 0 0 6.74-6.75v-1.16z" fill="#dbd8dd"/><rect fill="#dbd8dd" height="19.385" rx="1.557" transform="matrix(.448 -.894 .894 .448 -16.806 46.256)" width="19.403" x="19.351" y="27.044"/><path d="m32.676 49.72a2.046 2.046 0 0 1 -.919-.219l-14.547-7.288a2.057 2.057 0 0 1 -.918-2.761l7.3-14.563a2.058 2.058 0 0 1 2.761-.917l14.547 7.287a2.057 2.057 0 0 1 .918 2.761l-7.3 14.563a2.044 2.044 0 0 1 -1.19 1.031 2.067 2.067 0 0 1 -.652.106zm-7.246-24.967a1.06 1.06 0 0 0 -.947.584l-7.296 14.563a1.057 1.057 0 0 0 .471 1.419l14.542 7.287a1.057 1.057 0 0 0 1.419-.471l7.3-14.563a1.057 1.057 0 0 0 -.471-1.419l-14.548-7.287a1.049 1.049 0 0 0 -.47-.113z" fill="#323c6b"/><path d="m40.672 31.706-14.547-7.288a1.557 1.557 0 0 0 -2.09.695l-.3.608 13.941 6.985a1.557 1.557 0 0 1 .695 2.09l-6.996 13.955.605.3a1.558 1.558 0 0 0 2.09-.695l7.3-14.562a1.557 1.557 0 0 0 -.698-2.088z" fill="#bbbbcd"/><path d="m23.977 35.265a.492.492 0 0 1 -.224-.053.5.5 0 0 1 -.224-.671l2.662-5.312a.5.5 0 0 1 .671-.223l3.666 1.836a.5.5 0 1 1 -.447.895l-3.22-1.613-2.437 4.865a.5.5 0 0 1 -.447.276z" fill="#323c6b"/><path d="m32.676 49.72a2.046 2.046 0 0 1 -.919-.219l-14.547-7.288a2.057 2.057 0 0 1 -.918-2.761l7.3-14.563a2.058 2.058 0 0 1 2.761-.917l14.547 7.287a2.057 2.057 0 0 1 .918 2.761l-7.3 14.563a2.044 2.044 0 0 1 -1.19 1.031 2.067 2.067 0 0 1 -.652.106zm-7.246-24.967a1.06 1.06 0 0 0 -.947.584l-7.296 14.563a1.057 1.057 0 0 0 .471 1.419l14.542 7.287a1.057 1.057 0 0 0 1.419-.471l7.3-14.563a1.057 1.057 0 0 0 -.471-1.419l-14.548-7.287a1.049 1.049 0 0 0 -.47-.113z" fill="#323c6b"/><path d="m61.24 22.42-8.61 9.03a1.189 1.189 0 0 1 -1.69.04l-9.04-8.62a1.2 1.2 0 0 1 -.04-1.69l1.33-1.4 7.28-7.63a1.208 1.208 0 0 1 1.69-.04l7.61 7.26 1.43 1.36a1.189 1.189 0 0 1 .04 1.69z" fill="#dbd8dd"/><path d="m51.763 32.323a1.678 1.678 0 0 1 -1.168-.472l-9.039-8.619a1.658 1.658 0 0 1 -.524-1.186 1.709 1.709 0 0 1 .465-1.208l8.611-9.038a1.7 1.7 0 0 1 2.394-.06l9.043 8.623a1.7 1.7 0 0 1 .057 2.4l-8.61 9.037a1.7 1.7 0 0 1 -1.187.527zm-.425-20.041a.715.715 0 0 0 -.511.217l-8.6 9.025a.713.713 0 0 0 -.191.5.672.672 0 0 0 .211.479l9.043 8.623a.689.689 0 0 0 .983-.024l8.609-9.029a.689.689 0 0 0 -.024-.983l-9.039-8.619a.7.7 0 0 0 -.481-.188z" fill="#323c6b"/><path d="m61.2 20.73-1.43-1.36-7.61-7.26a1.208 1.208 0 0 0 -1.69.04l-.6.633 6.9 6.587 1.43 1.36a1.189 1.189 0 0 1 .04 1.69l-8.006 8.4.706.673a1.189 1.189 0 0 0 1.69-.04l8.61-9.03a1.189 1.189 0 0 0 -.04-1.693z" fill="#bbbbcd"/><path d="m51.7 27.588a.5.5 0 0 1 -.345-.138l-3.3-3.145a.5.5 0 0 1 .689-.724l2.936 2.8 1.82-1.914a.5.5 0 0 1 .725.69l-2.17 2.276a.5.5 0 0 1 -.351.155z" fill="#323c6b"/><path d="m51.763 32.323a1.678 1.678 0 0 1 -1.168-.472l-9.039-8.619a1.658 1.658 0 0 1 -.524-1.186 1.709 1.709 0 0 1 .465-1.208l8.611-9.038a1.7 1.7 0 0 1 2.394-.06l9.043 8.623a1.7 1.7 0 0 1 .057 2.4l-8.61 9.037a1.7 1.7 0 0 1 -1.187.527zm-.425-20.041a.715.715 0 0 0 -.511.217l-8.6 9.025a.713.713 0 0 0 -.191.5.672.672 0 0 0 .211.479l9.043 8.623a.689.689 0 0 0 .983-.024l8.609-9.029a.689.689 0 0 0 -.024-.983l-9.039-8.619a.7.7 0 0 0 -.481-.188z" fill="#323c6b"/><rect fill="#dbd8dd" height="12.779" rx="1.026" transform="matrix(.942 -.335 .335 .942 -13.736 19.769)" width="12.768" x="43.978" y="43.261"/><path d="m47.114 58.027a1.528 1.528 0 0 1 -1.438-1.014l-3.6-10.107a1.525 1.525 0 0 1 .924-1.949l10.1-3.594a1.527 1.527 0 0 1 1.95.926l3.6 10.106a1.526 1.526 0 0 1 -.925 1.95l-10.1 3.594a1.52 1.52 0 0 1 -.511.088zm6.5-15.752a.526.526 0 0 0 -.177.031l-10.098 3.594a.525.525 0 0 0 -.319.671l3.6 10.107a.527.527 0 0 0 .672.318l10.1-3.594a.525.525 0 0 0 .319-.671l-3.6-10.106a.521.521 0 0 0 -.27-.3.528.528 0 0 0 -.231-.051z" fill="#323c6b"/><path d="m58.175 52.562-3.6-10.106a1.026 1.026 0 0 0 -1.31-.622l-.493.175 3.4 9.553a1.026 1.026 0 0 1 -.622 1.31l-9.6 3.419.2.553a1.026 1.026 0 0 0 1.31.622l10.1-3.594a1.026 1.026 0 0 0 .615-1.31z" fill="#bbbbcd"/><g fill="#323c6b"><path d="m49.116 54.1a.5.5 0 0 1 -.168-.971l1.626-.579a.5.5 0 0 1 .336.942l-1.626.579a.506.506 0 0 1 -.168.029z"/><path d="m47.114 58.027a1.528 1.528 0 0 1 -1.438-1.014l-3.6-10.107a1.525 1.525 0 0 1 .924-1.949l10.1-3.594a1.527 1.527 0 0 1 1.95.926l3.6 10.106a1.526 1.526 0 0 1 -.925 1.95l-10.1 3.594a1.52 1.52 0 0 1 -.511.088zm6.5-15.752a.526.526 0 0 0 -.177.031l-10.098 3.594a.525.525 0 0 0 -.319.671l3.6 10.107a.527.527 0 0 0 .672.318l10.1-3.594a.525.525 0 0 0 .319-.671l-3.6-10.106a.521.521 0 0 0 -.27-.3.528.528 0 0 0 -.231-.051z"/><path d="m64.97 63.59h-55.94a.5.5 0 0 1 -.5-.5v-45.69a.5.5 0 0 1 .265-.441c.141-.075 14.288-7.439 28.438 0a27.193 27.193 0 0 0 6.08 2.337.5.5 0 0 1 .24.829l-1.33 1.4a.713.713 0 0 0 -.191.5.672.672 0 0 0 .211.479l9.043 8.623a.689.689 0 0 0 .983-.024l8.609-9.03a.689.689 0 0 0 -.023-.984l-1.43-1.358a.5.5 0 0 1 .207-.843 29.237 29.237 0 0 0 5.1-1.931.5.5 0 0 1 .734.442v45.691a.5.5 0 0 1 -.496.5zm-55.439-1h54.939v-44.39a32.15 32.15 0 0 1 -3.73 1.406l.806.765a1.7 1.7 0 0 1 .057 2.4l-8.611 9.029a1.7 1.7 0 0 1 -1.187.527 1.746 1.746 0 0 1 -1.21-.472l-9.039-8.619a1.658 1.658 0 0 1 -.524-1.186 1.709 1.709 0 0 1 .465-1.208l.753-.792a28.239 28.239 0 0 1 -5.482-2.2c-12.638-6.65-25.268-1.09-27.238-.141z"/><path d="m43.19 20.28a.5.5 0 0 1 -.122-.015 28.152 28.152 0 0 1 -6.3-2.423c-13.689-7.193-27.364-.073-27.5 0a.5.5 0 0 1 -.738-.442v-14.4a.5.5 0 0 1 .5-.5h55.94a.5.5 0 0 1 .5.5v14.4a.5.5 0 0 1 -.266.442 29.677 29.677 0 0 1 -5.3 2.009.5.5 0 0 1 -.482-.119l-7.609-7.26a.706.706 0 0 0 -.988.028l-7.275 7.625a.5.5 0 0 1 -.36.155zm-19.65-6.644a29.141 29.141 0 0 1 13.692 3.322 27.22 27.22 0 0 0 5.8 2.265l7.076-7.423a1.7 1.7 0 0 1 2.394-.06l7.4 7.065a30.761 30.761 0 0 0 4.563-1.719v-13.586h-54.935v13.108a35.468 35.468 0 0 1 14.01-2.972z"/><path d="m58.23 71.5h-42.46a7.253 7.253 0 0 1 -7.24-7.25v-1.16a.5.5 0 0 1 .5-.5h55.94a.5.5 0 0 1 .5.5v1.16a7.253 7.253 0 0 1 -7.24 7.25zm-48.7-7.91v.66a6.252 6.252 0 0 0 6.24 6.25h42.46a6.252 6.252 0 0 0 6.239-6.25v-.66z"/></g><path d="m24.689 60.125h-1.6a.8.8 0 1 1 0-1.6h1.6a.8.8 0 0 1 0 1.6z" fill="#eeefee"/><path d="m19.864 60.125h-7.216a1.114 1.114 0 0 1 -1.113-1.113v-5.494a.8.8 0 1 1 1.6 0v5h6.727a.8.8 0 1 1 0 1.6z" fill="#eeefee"/></svg>