<svg id="Layer_1" enable-background="new 0 0 512 512" height="512" viewBox="0 0 512 512" width="512" xmlns="http://www.w3.org/2000/svg"><g><path d="m512 204.246v103.514c0 2.809-2.824 4.76-5.438 3.732-7.709-3.031-24.609-7.55-56.852-7.55-48.517 0-67.955 26.313-90.776 54.379-22.831 28.076-40.621 11.558-40.621 11.558v-227.763s17.79-16.507 40.621 11.558c22.821 28.076 42.259 54.389 90.776 54.389 32.242 0 49.143-4.519 56.852-7.55 2.614-1.027 5.438.923 5.438 3.733z" fill="#fa6f5f"/><g fill="#eb5e4e"><path d="m328.028 153.674c22.821 28.076 42.259 54.389 90.776 54.389 7.035 0 13.318-.22 18.955-.588-39.943-3.992-57.98-28.155-78.826-53.801-22.831-28.066-40.621-11.558-40.621-11.558v1.871c3.103 2.395 6.355 5.555 9.716 9.687z"/><path d="m481.095 206.315v99.376c12.747 1.592 20.779 3.967 25.45 5.799 2.625 1.03 5.456-.904 5.456-3.724v-103.527c0-2.82-2.831-4.754-5.456-3.724-4.672 1.833-12.704 4.208-25.45 5.8z"/><path d="m418.805 303.943c-48.517 0-67.955 26.313-90.776 54.379-3.362 4.134-6.613 7.295-9.716 9.69v1.868s17.79 16.518 40.621-11.558c20.846-25.637 38.883-49.799 78.826-53.791-5.638-.368-11.921-.588-18.955-.588z"/></g><ellipse cx="186.543" cy="256" fill="#ffe4c4" rx="182.342" ry="182.5"/><path d="m186.543 73.5c-5.206 0-10.357.231-15.453.659 93.471 7.852 166.89 86.259 166.89 181.841s-73.419 173.989-166.89 181.841c5.095.428 10.247.659 15.453.659 100.705 0 182.342-81.708 182.342-182.5s-81.637-182.5-182.342-182.5z" fill="#fdd9b1"/><g fill="#fa6f5f"><path d="m250.754 144.853c8.828 2.677 17.661 4.835 25.878 8.021 8.959 3.474 15.652 7.651 20.462 12.771 7.84 8.344 11.78 20.244 17.305 26.228 4.336 4.697 9.72 7.04 15.445 9.669 6.612 3.079 15.846 9.603 24.776 15.912 6.527 4.611 13.276 9.379 19.502 13.188 3.564 2.178 8.167 1.02 10.312-2.484 2.162-3.534 1.049-8.15-2.484-10.312-5.804-3.55-12.347-8.173-18.675-12.643-25.095-17.728-26.519-16.724-28.666-17.981-3.649-1.674-7.096-3.256-9.189-5.523-3.383-3.664-8.36-16.709-17.395-26.324-6.379-6.791-14.875-12.183-25.971-16.485-8.965-3.476-18.163-5.728-26.909-8.377-2.476-.825-11.222-5.345-13.682-8.647-2.474-3.322-7.173-4.008-10.495-1.534-3.322 2.475-4.009 7.173-1.534 10.495 5.836 7.831 19.571 13.496 21.32 14.026z"/><path d="m373.682 268.017c-7.666 2.337-13.906 8.697-19.412 14.309-6.546 6.673-8.195 8.32-21.016 14.818-15.216 7.713-23.063 13.277-35.712 24.418-9.376 8.258-11.62 10.263-30.411 14.798-16.958 4.095-20.787 5.452-25.563 13.558-1.359 2.306-2.341 3.972-6.52 6.12-3.684 1.894-5.136 6.415-3.242 10.099 1.893 3.684 6.416 5.136 10.099 3.242 8.041-4.133 10.775-8.774 12.585-11.846 1.509-2.561.383-2.785 16.16-6.592 21.284-5.138 25.605-8.257 36.806-18.124 11.953-10.529 18.708-15.263 32.578-22.294 14.483-7.34 17.323-9.928 24.943-17.693 4.25-4.333 9.068-9.243 13.079-10.465 3.962-1.208 6.195-5.399 4.987-9.361-1.207-3.962-5.398-6.191-9.361-4.987z"/><path d="m272.801 200.777c15.512 1.293 24.402 22.836 41.253 27.333 13.842 3.695 61.059 19.988 61.534 20.152 3.924 1.354 8.188-.733 9.538-4.641 1.352-3.916-.726-8.186-4.641-9.538-1.961-.677-48.204-16.634-62.563-20.466-11.18-2.984-21.877-25.954-43.875-27.79-17.971-1.499-46.633-10.322-46.92-10.411-3.954-1.222-8.157.99-9.382 4.947s.989 8.157 4.945 9.382c1.237.385 30.503 9.396 50.111 11.032z"/><path d="m377.838 251.164c-3.27.087-32.33 1.053-45.645 8.172-12.071 6.455-27.443 13.886-39.264 14.065-15.76.239-24.823 7.891-39.176 12.397-9.691 3.043-18.483 3.182-22.708 3.248-2.886.046-6.838.108-8.978 4.181-2.983 5.68 2.091 12.34 8.394 10.83 9.613-.158 18.159-.925 27.785-3.947 15.192-4.771 23.057-11.53 34.91-11.71 14.958-.227 31.702-8.132 46.109-15.836 7.682-4.108 27.98-6.108 38.97-6.405 4.14-.111 7.407-3.558 7.296-7.697-.109-4.141-3.577-7.379-7.693-7.298z"/></g><ellipse cx="47.229" cy="256" fill="#af531c" rx="47.229" ry="83.145"/><ellipse cx="36.32" cy="256" fill="#5f2b0e" rx="21.825" ry="38.421"/></g></svg>