<?xml version="1.0" encoding="iso-8859-1"?>
<!-- Generator: Adobe Illustrator 18.0.0, SVG Export Plug-In . SVG Version: 6.00 Build 0)  -->
<!DOCTYPE svg PUBLIC "-//W3C//DTD SVG 1.1//EN" "http://www.w3.org/Graphics/SVG/1.1/DTD/svg11.dtd">
<svg version="1.1" id="Capa_1" xmlns="http://www.w3.org/2000/svg" xmlns:xlink="http://www.w3.org/1999/xlink" x="0px" y="0px"
	 viewBox="0 0 174.435 174.435" style="enable-background:new 0 0 174.435 174.435;" xml:space="preserve">
<g>
	<path style="fill:#D72027;" d="M44.471,65.265c0,0-15.573-17.608-7.787-27.472c5.983-7.578,15.313-7.267,15.313-7.267
		S45.25,13.281,59.265,8.982c14.016-4.298,18.688,6.489,18.688,6.489S79.77-3.203,95.084,0.481
		c15.313,3.685,19.726,33.159,7.527,53.423C90.412,74.168,44.471,65.265,44.471,65.265z"/>
	<path style="fill:#B7191E;" d="M60.068,8.78c4.043,0.871,8.047,3.754,9.709,11.233c3.893,17.521-11.031,20.635-17.78,10.513
		c0,0-9.33-0.312-15.313,7.267c-0.962,1.22-1.563,2.559-1.886,3.966c3.07-3.046,7.417-5.444,12.203-2.084
		c9.149,6.425-5.84,13.043-2.531,23.166c0.353,1.08,1.069,1.974,1.973,2.763c8.912,1.422,45.482,6.05,56.167-11.699
		c12.199-20.264,7.787-49.738-7.527-53.423c-2.09-0.503-3.909-0.561-5.525-0.335c4.371,3.066,12.874,10.622,10.976,22.009
		C98.004,37.339,79.9,34.289,77.953,15.472C77.953,15.472,73.442,5.145,60.068,8.78z"/>
	<path style="fill:#B0171C;" d="M38.76,98.529c0,0-4.153,10.382,5.71,16.352c9.863,5.97,15.314-8.306,15.573-22.581
		c0.26-14.275-7.787-20.765-8.565-20.765c-0.778,0-5.97,7.527-6.749,7.787C43.952,79.582,38.76,98.529,38.76,98.529z"/>
	<path style="fill:#D72027;" d="M41.875,74.65c0,0-14.275,12.718-10.382,26.993c3.893,14.275,21.024,4.932,20.764-11.42
		C51.998,73.871,41.875,74.65,41.875,74.65z"/>
	<path style="fill:#FECE45;" d="M49.532,56.611c0,0-20.634,7.786-28.032,17.909c0,0,15.184,6.229,29.979,3.504L49.532,56.611z"/>
	<path style="fill:#F9B144;" d="M51.479,78.024l-0.782-8.601C37.508,73.846,21.5,74.52,21.5,74.52S36.684,80.75,51.479,78.024z"/>
	<path style="fill:#FADBB7;" d="M113.383,130.974c0,0,15.573-7.008-7.787-36.986C105.596,93.987,118.833,120.851,113.383,130.974z"
		/>
	<path style="fill:#EF4644;" d="M88.855,3.856c-2.829-1.212-9.149,7.592-6.813,10.512C84.377,17.289,94.305,6.192,88.855,3.856z"/>
	<path style="fill:#EF4644;" d="M58.487,13.395c-1.652-0.699-7.202,5.84-4.477,9.538C56.735,26.633,63.548,15.536,58.487,13.395z"/>
	<path style="fill:#EF4644;" d="M39.604,42.4c-3.297,0.348-2.92,9.149,0.195,10.123C42.914,53.496,43.303,42.011,39.604,42.4z"/>
	<path style="fill:#EF4644;" d="M37.657,87.368c-2.313-1.027-6.229,10.707-1.947,14.6C39.993,105.861,41.161,88.926,37.657,87.368z"
		/>
	<path style="fill:#FCE9CC;" d="M79.511,35.977c-43.593,1.282-35.819,40.49-28.811,66.187c7.008,25.695-15.574,56.064,1.557,68.523
		c17.13,12.458,27.253-10.123,27.253-10.123s7.787,9.344,22.581,6.23c14.795-3.114,9.344-25.696,9.344-25.696
		s7.787,10.123,24.917,3.894c17.13-6.23,24.917-33.482,3.893-54.506C119.222,69.459,105.985,35.198,79.511,35.977z"/>
	<circle style="fill:#FADBB7;" cx="74.644" cy="58.623" r="6.813"/>
	<circle style="fill:#623A01;" cx="73.8" cy="57.909" r="6.229"/>
	<path style="fill:#FADBB7;" d="M136.353,144.989c17.13-6.23,24.917-33.482,3.893-54.506
		c-21.024-21.024-34.261-55.285-60.735-54.507c-5.828,0.171-10.711,1.039-14.828,2.442c8.748-1.156,31.569-5.168,52.234,42.91
		c-1.334-2.227-4.581-6.695-10.542-9.534c0,0,19.466,25.696,19.077,46.331c0,0-2.725-6.229-7.787-8.955
		c0,0,8.955,11.291,0.389,22.971c-8.565,11.68-21.024-6.229-21.024-6.229s9.344,15.573,0,26.864c0,0,2.726-10.123-1.557-14.405
		c0,0,1.557,12.458-7.008,16.741c-8.565,4.282-18.299-14.017-18.299-14.017s3.504,14.017-8.954,24.918c0,0,3.115-5.451,3.504-11.681
		c0,0-1.947,10.123-13.626,9.733c-1.725-0.058-3.187-0.539-4.469-1.261c0.952,3.073,2.701,5.744,5.637,7.88
		c17.13,12.458,27.253-10.123,27.253-10.123s7.787,9.344,22.581,6.23c14.795-3.114,9.344-25.696,9.344-25.696
		S119.222,151.219,136.353,144.989z"/>
	<path style="fill:#623A01;" d="M34.116,66.214c-1.002,1.335,1.583,1.451,2.243,0.264C37.019,65.29,34.908,65.158,34.116,66.214z"/>
	<circle style="fill:#8C5619;" cx="71.189" cy="55.443" r="1.411"/>
	<circle style="fill:#8C5619;" cx="69.193" cy="56.854" r="0.535"/>
</g>
<g>
</g>
<g>
</g>
<g>
</g>
<g>
</g>
<g>
</g>
<g>
</g>
<g>
</g>
<g>
</g>
<g>
</g>
<g>
</g>
<g>
</g>
<g>
</g>
<g>
</g>
<g>
</g>
<g>
</g>
</svg>
