<svg id="Layer_1" enable-background="new 0 0 512 512" height="512" viewBox="0 0 512 512" width="512" xmlns="http://www.w3.org/2000/svg"><g><path d="m356.746 512h-169.32c-2.209 0-4-1.791-4-4v-123.742h177.32v123.742c0 2.209-1.791 4-4 4z" fill="#fdba91"/><path d="m329.818 384.258v127.742h26.928c2.209 0 4-1.791 4-4v-123.742z" fill="#fc997d"/><path d="m438.323 117.159c-14.648-6.113-31.479.803-37.593 15.448l-42.718 102.317c-.913 2.187-3.626 2.953-5.549 1.568l-.059-.042c-1.22-.878-1.786-2.407-1.434-3.867l36.415-150.766c4.228-17.506-5.936-29.766-18.81-33.948-14.45-4.694-32.313.791-37.064 20.458l-31.467 130.279c-.566 2.343-3.129 3.59-5.324 2.591l-.065-.029c-1.347-.613-2.211-1.956-2.211-3.435v-169.014c.002-15.861-12.865-28.719-28.738-28.719-15.873 0-28.74 12.858-28.74 28.719v167.172c0 2.258-1.283 4.321-3.309 5.321l-.107.053c-3.585 1.769-7.857-.454-8.463-4.403l-20.82-135.864c-2.42-15.796-17.485-28.719-33.476-28.719-15.991 0-27.095 12.924-24.674 28.719l30.299 197.723c1.042 6.801-1.725 13.962-8.984 17.934-7.76 4.246-17.515 1.626-22.478-5.693l-34.424-50.765c-8.907-13.135-26.778-16.564-39.916-7.659-13.138 8.905-16.568 26.772-7.661 39.907l43.873 64.7c.002.003 17.029 35.353 18.797 70.127 1.769 34.775 20.702 86.612 74.349 86.612h138.957c37.445 0 64.976-32.45 64.779-71.147l-.548-107.323c-.049-9.553 1.823-19.018 5.504-27.834l47.109-112.836c6.116-14.645-.802-31.472-15.45-37.585z" fill="#fdba91"/><g fill="#fc997d"><path d="m167.708 37.295 20.82 135.864c2.048 13.502 21.715 28.241 34.56 23.703l-20.82-135.864c-2.42-15.796-17.485-28.719-33.476-28.719-1.742 0-3.422.162-5.038.456 1.859.858 3.201 2.276 3.954 4.56z"/><path d="m261.518 28.719v127.987c0 41.683 30.928 41.025 30.928 41.025v-169.012c0-15.861-12.867-28.719-28.74-28.719-5.695 0-10.998 1.662-15.464 4.517 7.981 5.103 13.276 14.032 13.276 24.202z"/><path d="m356.458 81.817-26.634 110.269c-6.973 31.027 11.425 40.536 21.146 40.497l36.415-150.766c4.228-17.506-5.936-29.766-18.81-33.948-8.235-2.675-17.576-2.038-24.969 2.64 9.815 5.63 16.4 16.621 12.852 31.308z"/><path d="m438.323 117.159c-9.023-3.765-18.87-2.581-26.534 2.301 11.571 7.368 16.523 22.194 11.058 35.283l-47.109 112.836c-3.681 8.816-5.553 18.282-5.504 27.834l.548 107.323c.198 38.697-27.334 71.147-64.779 71.147h30.928c37.445 0 64.976-32.45 64.779-71.147l-.548-107.323c-.049-9.553 1.823-19.018 5.504-27.834l47.109-112.836c6.114-14.644-.804-31.471-15.452-37.584z"/><path d="m77.603 220.197 34.424 50.765c4.963 7.319 21.531 18.321 43.842 7.654l-.002-.008c-5.06-.471-9.881-3.176-12.912-7.646l-34.424-50.765c-8.756-12.913-26.172-16.436-39.241-8.092 3.2 2.041 6.048 4.751 8.313 8.092z"/></g><path d="m297.617 351.303c-41.694-53.236-105.51-57.86-108.206-58.03-4.127-.261-7.697 2.877-7.959 7.011s2.877 7.697 7.011 7.959c.593.038 59.754 4.312 97.345 52.31 2.555 3.262 7.269 3.834 10.529 1.28 3.261-2.555 3.834-7.269 1.28-10.53z" fill="#eb866c"/></g></svg>