<svg id="Layer_1" enable-background="new 0 0 512 512" height="512" viewBox="0 0 512 512" width="512" xmlns="http://www.w3.org/2000/svg"><g><path d="m512 5.883c0-2.106-1.627-3.851-3.729-3.991-31.45-2.102-240.159-4.674-320.727 5.877-48.479 6.349-82.008 11.927-130.221 20.02-14.601 2.451-36.065 7.532-43.929 21.929-16.887 30.918-14.366 68.435-10.747 103.497 12.173 117.928 31.552 236.549 20.823 354.416-.213 2.345 1.621 4.369 3.977 4.369h104.684c1.853 0 3.462-1.266 3.89-3.069 14.725-61.987 33.687-149.06 34.299-211.917.452-46.471-12.812-99.479-21.586-121.243-1.065-2.641.699-5.569 3.531-5.871 81.035-8.628 159.754 32.666 241.328 39.935 25.573 2.279 85.889 1.187 114.613-.236 2.13-.105 3.794-1.863 3.794-3.995z" fill="#fdba91"/><g fill="#fc997d"><path d="m501.323 1.535-13.2 135.642c-3.859 39.659-35.584 70.406-74.638 73.669 29.427.798 71.974-.119 94.72-1.246 2.129-.105 3.794-1.863 3.794-3.995v-199.722c0-2.107-1.627-3.851-3.729-3.991-1.771-.119-4.106-.238-6.947-.357z"/><path d="m152.163 169.916c-19.203-.538-30.676 14.124-25.701 32.918 6.875 25.972 13.269 61.675 12.953 94.18-.621 63.902-20.209 152.831-35.029 214.986h27.745c1.853 0 3.462-1.266 3.89-3.069 14.725-61.987 33.687-149.06 34.299-211.917.452-46.463-12.807-99.46-21.581-121.232-1.055-2.617.647-5.513 3.424-5.866z"/></g><path d="m426.063 88.192c-28.828-1.541-84.434-13.842-84.992-13.966-4.044-.9-8.049 1.65-8.948 5.694-.898 4.043 1.65 8.05 5.694 8.949 2.328.518 57.375 12.695 87.445 14.302.137.007.271.011.407.011 3.958 0 7.269-3.1 7.482-7.1.222-4.137-2.952-7.669-7.088-7.89z" fill="#eb866c"/><path d="m70.804 141.176c-7.129 8.241-1.587 27.104-14.423 32.018-12.836 4.904-12.496-23.488-12.331-23.55l.021-.021c14.495-5.717 22.118-13.907 26.064-21.541 0 0 7.798 4.853.669 13.094z" fill="#fc997d"/><path d="m74.188 118.997c-3.798-1.654-8.217.083-9.871 3.881-3.99 9.161-12.528 16.116-25.377 20.671-3.904 1.384-5.947 5.671-4.563 9.575 1.091 3.075 3.982 4.996 7.069 4.996.832 0 1.678-.139 2.506-.433 11.635-4.125 26.997-12.473 34.117-28.818 1.655-3.799-.083-8.218-3.881-9.872z" fill="#eb866c"/></g></svg>