<svg id="Layer_1" enable-background="new 0 0 512 512" height="512" viewBox="0 0 512 512" width="512" xmlns="http://www.w3.org/2000/svg"><g><g fill="#eb866c"><path d="m128.474 0c-4.481 15.916-13.681 28.783-25.353 35.593-5.841 3.41-12.3 5.306-19.1 5.306-27.001 0-28.356-22.637-31.014-36.121-.488-2.477 1.399-4.778 3.923-4.778z"/><path d="m455.07 0c2.523 0 4.41 2.301 3.922 4.777-2.658 13.484-4.013 36.121-31.014 36.121-6.49 0-12.682-1.731-18.306-4.863-12.043-6.675-21.562-19.758-26.146-36.035z"/></g><g><path d="m512 352.105c0-1.785-1.179-3.366-2.896-3.849-27.1-7.625-55.427-10.564-82.244-19.16-27.775-8.902-55.102-25.503-67.055-52.107-8.861-19.723-8.17-42.23-7.314-63.835 1.224-30.9 2.448-61.8 3.672-92.699h-200.326c1.224 30.9 2.448 61.8 3.672 92.699.856 21.605 1.547 44.112-7.314 63.835-11.953 26.605-39.28 43.205-67.055 52.107-26.818 8.596-55.144 11.535-82.244 19.16-1.717.483-2.896 2.064-2.896 3.849v155.895c0 2.209 1.791 4 4 4h504c2.209 0 4-1.791 4-4z" fill="#fdba91"/></g><path d="m426.859 329.096c-27.775-8.902-55.102-25.503-67.055-52.108-8.861-19.723-8.169-42.23-7.314-63.835l3.672-92.699h-30.905l-3.672 92.699c-.856 21.605-1.547 44.112 7.314 63.835 11.953 26.605 39.28 43.205 67.055 52.108 19.776 6.339 40.373 9.602 60.693 13.936 14.265 3.042 24.447 15.669 24.447 30.255v138.713h26.906c2.209 0 4-1.791 4-4v-155.895c0-1.784-1.179-3.366-2.896-3.849-27.101-7.625-55.427-10.564-82.245-19.16z" fill="#fc997d"/><g fill="#eb866c"><path d="m222.588 381.751c-8.44-5.051-17.917-6.284-26.276-7.372l-111.337-14.499c-4.113-.532-7.872 2.361-8.406 6.469-.535 4.107 2.361 7.871 6.468 8.406l111.339 14.499c7.249.943 14.745 1.919 20.511 5.368 8.339 4.99 13.123 14.975 18.083 26.547 1.637 3.82 6.053 5.567 9.848 3.939 3.807-1.632 5.571-6.041 3.939-9.848-4.634-10.812-10.98-25.618-24.169-33.509z"/><path d="m435.024 366.349c-.534-4.106-4.291-7.006-8.406-6.469l-111.336 14.499c-8.361 1.088-17.837 2.321-26.277 7.372-13.189 7.891-19.535 22.697-24.169 33.51-1.632 3.807.132 8.216 3.939 9.848 3.806 1.632 8.216-.132 9.848-3.939 4.96-11.572 9.744-21.557 18.083-26.547 5.765-3.449 13.261-4.425 20.512-5.368l111.337-14.499c4.108-.536 7.004-4.3 6.469-8.407z"/></g><path d="m412.804 0c-.103 12.125-1.154 24.168-3.132 36.036-5.378 32.368-17.595 63.377-35.995 90.883l-23.931 35.778c-13.166 19.687-35.273 31.492-58.947 31.492h-64.036c-22.695 0-44.02-10.858-57.371-29.216l-25.878-35.603c-20.367-28.011-34.099-60.07-40.393-93.778-2.194-11.702-3.482-23.601-3.842-35.592z" fill="#fdba91"/><path d="m381.898 0c-.103 12.125-1.154 24.168-3.132 36.036-5.378 32.368-17.595 63.377-35.995 90.883l-23.931 35.778c-13.166 19.687-35.273 31.492-58.947 31.492h30.907c23.674 0 45.781-11.806 58.947-31.492l23.931-35.778c18.399-27.506 30.617-58.515 35.995-90.883 1.978-11.868 3.029-23.91 3.132-36.036h-30.907z" fill="#fc997d"/></g></svg>