<svg id="Layer" enable-background="new 0 0 64 64" height="512" viewBox="0 0 64 64" width="512" xmlns="http://www.w3.org/2000/svg"><path d="m52 12v40h-1l-13.07-21.96.07-.04v-18c0-1.1.9-2 2-2h10c1.1 0 2 .9 2 2z" fill="#ff8a65"/><path d="m13 12 13.07 21.96-.07.04v18c0 1.1-.9 2-2 2h-10c-1.1 0-2-.9-2-2v-40z" fill="#ff8a65"/><path d="m51 52h1v2h-14l-11.93-20.04-13.07-21.96h-1v-2h14l11.93 20.04z" fill="#ff7043"/><path d="m24 56c2.206 0 4-1.794 4-4v-10.889l8.281 13.913c.361.605 1.014.976 1.719.976h14c1.104 0 2-.896 2-2v-42c0-2.206-1.794-4-4-4h-10c-2.206 0-4 1.794-4 4v10.889l-8.281-13.912c-.361-.606-1.014-.977-1.719-.977h-14c-1.104 0-2 .896-2 2v42c0 2.206 1.794 4 4 4zm0-4h-10v-34.41l10 16.8zm16-40h10v34.41l-10-16.8zm8.673 40h-9.536l-23.81-40h9.536z" fill="#012e52"/></svg>