<svg id="Layer_1" height="512" viewBox="0 0 512 512" width="512" xmlns="http://www.w3.org/2000/svg" data-name="Layer 1"><path d="m406.24 329a357.561 357.561 0 0 1 -17.06-44h-266.36a357.561 357.561 0 0 1 -17.06 44c-5.56 11.99-9.86 27.69-9.83 47.51 0 1 .02 2.015.04 3 1.65 59.515 51.33 106.49 110.87 106.49h98.32c59.54 0 109.22-46.96 110.87-106.47.02-.99.04-2.02.04-3.02.03-19.82-4.27-35.52-9.83-47.51z" fill="#e2939b"/><path d="m125.97 379.515c-.02-.99-.04-2-.04-3-.03-19.82 4.27-35.52 9.83-47.51a357.561 357.561 0 0 0 17.06-44h-30a357.561 357.561 0 0 1 -17.06 44c-5.56 11.99-9.86 27.69-9.83 47.51 0 1 .02 2.015.04 3 1.65 59.51 51.33 106.485 110.87 106.485h30c-59.54 0-109.22-46.975-110.87-106.485z" fill="#ba7d85"/><path d="m418.41 81.04c-3.76-23.83 0-59.51-4.92-54.58-3.35 3.36-15.66 7.46-23.18 9.74a59.443 59.443 0 0 1 -10.29 2.18c-54.06 6.39-69.34 39.01-73.66 57.82a111.78 111.78 0 0 1 -5.71 18.09l62.27 102.63c.41.48.82.97 1.23 1.46a37.374 37.374 0 0 1 -1.33-9.86c0-9.21 3.46-18.25 10.76-23.96a31.433 31.433 0 0 1 8.08-4.56c45.52-17.6 39.1-84.13 36.75-98.96z" fill="#e2939b"/><path d="m205.64 96.2c-4.32-18.81-19.6-51.43-73.66-57.82a59.443 59.443 0 0 1 -10.29-2.18c-7.52-2.28-19.83-6.38-23.18-9.74-4.92-4.93-1.16 30.75-4.92 54.58-2.35 14.83-8.77 81.36 36.75 98.96a31.433 31.433 0 0 1 8.08 4.56 30.1 30.1 0 0 1 11.29 24 34.35 34.35 0 0 1 -1.23 9.07l.03-.03 62.96-103.01a112.309 112.309 0 0 1 -5.83-18.39z" fill="#e2939b"/><path d="m118.77 59.12c94.31 13.9 47.79 74.83 39.28 85a9.739 9.739 0 0 1 -2.79 2.28 9.635 9.635 0 0 1 -5.23 1.15c-50.43-3.18-31.26-88.43-31.26-88.43z" fill="#af7b82"/><path d="m393.23 59.12s19.17 85.25-31.26 88.43a9.635 9.635 0 0 1 -5.23-1.15 9.739 9.739 0 0 1 -2.79-2.28c-8.51-10.17-55.03-71.1 39.28-85z" fill="#af7b82"/><path d="m389.18 285.12c-.98 37.16-26.65 65.73-64.65 81.03a58.044 58.044 0 0 0 -26.65 21.51c-8.2 12.25-23.88 20.53-41.88 20.53s-33.68-8.28-41.88-20.53a58.044 58.044 0 0 0 -26.65-21.51c-38-15.3-63.67-43.87-64.65-81.03q-.03-1.11-.03-2.22c0-23.19 9.54-46.12 25.69-65.27l.03-.03a12.657 12.657 0 0 0 3-8.16v-.05a104.875 104.875 0 1 1 209.75 0c0 .92-.01 1.83-.03 2.75a7.026 7.026 0 0 0 1.69 4.78c.41.48.82.97 1.23 1.46v.01c15.77 19 25.06 41.62 25.06 64.51q0 1.11-.03 2.22z" fill="#f3aeb5"/><path d="m273.42 261.31c28.61 4.07 56.48 25.86 55.75 54.79-1.11 43.73-43.3 45.21-63.52 43.39a117.87 117.87 0 0 0 -21.17.07c-19.08 1.7-57.38-.29-58.48-43.46-.73-28.93 27.14-50.72 55.74-54.79 2.51-.36 5.65-.64 8.8-.85a96.633 96.633 0 0 1 11.16-.07c4.22.21 8.92.52 11.72.92z" fill="#fcc0c9"/><path d="m306.3 225.96c7.75-25.21 32.78-18.85 32.78-18.85s0 34.98-32.78 18.85z" fill="#b0b5ca"/><path d="m212.3 225.96c-32.78 16.13-32.78-18.85-32.78-18.85s25.03-6.36 32.78 18.85z" fill="#b0b5ca"/><path d="m244.12 387.66a58.044 58.044 0 0 0 -26.65-21.51c-38-15.3-63.67-43.87-64.65-81.03q-.03-1.11-.03-2.22c0-23.19 9.54-46.12 25.69-65.27.01-.01.265-.02.275-.03a12.911 12.911 0 0 0 3.245-8.16v-.05a104.662 104.662 0 0 1 59.715-94.8 103.391 103.391 0 0 1 29.785-9.011 106.684 106.684 0 0 0 -15.059-1.069 103.516 103.516 0 0 0 -44.695 10.08 104.69 104.69 0 0 0 -59.746 94.8v.05a12.911 12.911 0 0 1 -3.245 8.16c-.01.01-.143.02-.153.03-16.149 19.15-25.751 42.08-25.751 65.27 0 .74-.02 1.48 0 2.22.98 37.16 26.634 65.73 64.634 81.03a58.026 58.026 0 0 1 26.643 21.51c8.2 12.25 23.876 20.53 41.876 20.53a56.545 56.545 0 0 0 15-2.019c-11.491-3.16-21.072-9.829-26.884-18.511z" fill="#c68b94"/><path d="m216 316.1c-.73-28.93 27.14-50.72 55.74-54.79.265-.038.54-.075.818-.111-2.841-.346-7.038-.619-10.858-.809a96.633 96.633 0 0 0 -11.16.07c-3.15.21-6.29.49-8.8.85-28.6 4.07-56.47 25.86-55.74 54.79 1.1 43.17 39.4 45.16 58.48 43.46 3.027-.284 6.063-.442 9.1-.49-17.855-2.735-36.81-12.785-37.58-42.97z" fill="#d3a1aa"/><path d="m274.48 359.56c-1.216.108-2.511.2-3.869.27a98.432 98.432 0 0 0 18.077-.73 117.428 117.428 0 0 0 -14.208.46z" fill="#d3a1aa"/><path d="m230.01 307.39s5.69 17.79-.43 24.04c-5.05 5.15-11.94 4.63-16.15-2.97-6.14-11.1 6.68-14.51 11.04-16.36 1.65-.7 3.87-2.88 5.54-4.71z" fill="#af7b82"/><path d="m290.71 312.1c4.35 1.85 17.17 5.26 11.03 16.36-4.21 7.6-11.1 8.12-16.15 2.97-6.05-6.19-.53-23.68-.42-24.03 1.67 1.83 3.88 4 5.54 4.7z" fill="#af7b82"/><path d="m273.955 242.029a5.974 5.974 0 0 1 -.86-.062c-2.225-.319-6.331-.639-11.562-.9a93.961 93.961 0 0 0 -10.838.07c-3.384.223-6.373.511-8.632.832a6 6 0 1 1 -1.691-11.88c3.227-.459 6.971-.757 9.543-.926a106.112 106.112 0 0 1 12.226-.08c5.743.287 10 .626 12.659 1.007a6 6 0 0 1 -.845 11.94z" fill="#a5767f"/><g fill="#f4f8fc"><path d="m121.418 376.314a6 6 0 0 1 -5.961-5.383c-.288-2.776-.472-5.595-.549-8.378a6 6 0 0 1 5.833-6.162h.168a6 6 0 0 1 5.995 5.836c.068 2.482.233 5 .489 7.472a6 6 0 0 1 -5.35 6.586c-.21.015-.419.029-.625.029z"/><path d="m185.984 462.677a6 6 0 0 1 -2.332-.474 112.168 112.168 0 0 1 -63.89-70.167 6 6 0 1 1 11.465-3.541 100.192 100.192 0 0 0 57.1 62.653 6 6 0 0 1 -2.338 11.529z"/></g></svg>