<svg id="Layer_1_1_" enable-background="new 0 0 256 256" height="512" viewBox="0 0 256 256" width="512" xmlns="http://www.w3.org/2000/svg"><path d="m63.361 156.927-5.89 16.413 14.585 4.558 2.184-18.252z" fill="#f0c792"/><path d="m149.56 82.71-27.488 1.001-7.321 5.71c-3.682 2.872-5.869 7.254-5.951 11.923l-.028 1.573c-.077 4.411 1.733 8.645 4.976 11.637l24.288 22.408 30.516 47.724h11.817c9.631 0 19.129-2.242 27.743-6.549 5.873-2.936 9.582-8.939 9.582-15.505 0-4.986-2.147-9.73-5.892-13.021l-43.944-34.914c1.206.071 2.454.135 3.723.195l-17.229-30.746z" fill="#514654"/><path d="m247.091 99.275-36.753 1.618-55.985-16.749 17.229 30.746c14.551.684 32.369.677 32.369.677l2.125 2.882c1.69 2.292 4.924 2.767 7.201 1.057 4.171-3.131 10.07-7.569 10.603-8.019l24.107-4.801c1.868-.372 3.159-2.088 2.999-3.986-.168-2.002-1.887-3.514-3.895-3.425z" fill="#f5d3a6"/><path d="m18.621 136.77c6.093-1.593 13.118-.968 13.118-.968l8.363-5.081 4.198 5.385s7.654-.298 11.175 1.338c4.016 1.867 7.598 7.895 9.424 11.657 1.482 3.055 1.721 6.251 1.259 9.437-.599 4.123-2.373 8.228-4.145 11.98-1.889 3.998-6.211 6.79-9.848 9.016-1.185.725-2.423 1.423-3.694 2.087-8.605-4.872-29.849-44.85-29.85-44.851z" fill="#f5d3a6"/><path d="m4.79 150.417c1.385-5.26 6.233-10.776 11.301-12.82.809-.326 1.661-.599 2.531-.827 0 .001 21.245 39.979 29.85 44.851-3.443 1.798-7.139 3.325-10.772 4.304-9.68 2.609-22.944-2.089-28.8-10.232-5.07-7.049-6.274-17.055-4.11-25.276z" fill="#704c0f"/><g fill="#5e400d"><path d="m11.065 159.208c2.231-6.327 7.528-10.981 12.175-14.033.245.436.495.88.754 1.338-4.435 2.935-9.45 7.352-11.511 13.195-1.929 5.469-2.241 12.228-2.031 17.858-.556-.604-1.085-1.223-1.553-1.873-.008-.012-.016-.024-.024-.036-.069-5.317.393-11.357 2.19-16.449z"/><path d="m27.992 173.063c2.632-2.79 4.562-6.349 5.97-9.785.332.524.664 1.043.996 1.561-1.428 3.255-3.331 6.565-5.87 9.257-3.203 3.395-6.967 6.73-10.268 9.47-.496-.235-.983-.482-1.463-.741 3.375-2.781 7.315-6.244 10.635-9.762z"/><path d="m21.472 184.688c3.95-1.294 8.46-3.051 11.93-5.2 2.792-1.73 5.049-4.312 6.798-6.899.321.444.638.872.953 1.294-1.804 2.573-4.104 5.115-6.959 6.884-3.054 1.892-6.816 3.471-10.335 4.711-.806-.229-1.6-.5-2.387-.79z"/></g><path d="m138.321 138.548-21.394-7.273c-9.263-2.724-19.267-.973-27.053 4.737l-13.312 12.644c-2.072 1.968-3.419 4.578-3.824 7.407l-2.019 14.136c-.295 2.065-.076 4.171.636 6.132 1.824 5.015 6.59 8.354 11.927 8.354h60.978l-1.065-38.697z" fill="#7f8b4b"/><path d="m143.195 145.988 1.065 38.697h24.293z" fill="#f0c792"/><path d="m164.029 156.736-19.532-59.681 6.186-17.526-5.155-6.186h-4.124l-6.186-2.062-5.155 1.031v8.248l-3.304-3.304c-1.088-1.088-2.776-1.295-4.094-.504l-.368.221c-1.452.871-2.026 2.688-1.338 4.235l2.919 6.569 7.217 10.309 9.309 52.133-48.23.445c-3.431 0-6.689 1.511-8.905 4.13l-1.518 1.794c-3.659 4.324-3.682 10.652-.056 15.004 2.52 3.023 6.395 4.572 10.304 4.119l62.341-5.166c1.619-.188 3.099-1.007 4.118-2.28l4.543-5.678c1.318-1.648 1.706-3.853 1.028-5.851z" fill="#f5d3a6"/><path d="m140.405 150.219 7.595-.529s-5.031-11.271-12.884-29.085z" fill="#f0c792"/><path d="m82.865 178.235c-5.29-.709-9.57-4.651-10.712-9.865-.446-2.038-.383-4.154.184-6.162l3.662-12.971c-1.75 1.888-2.895 4.265-3.261 6.826l-2.019 14.136c-.295 2.065-.076 4.171.636 6.132 1.824 5.015 6.59 8.354 11.927 8.354h47.7z" fill="#727d43"/><path d="m143.477 184.685h.783l-.161-5.857z" fill="#727d43"/><path d="m198.679 145.988c5.516 2.378 10.068 3.707 13.839 4.322-.237-.234-.463-.479-.715-.7l-43.944-34.914-15.466-7.946s18 27.047 46.286 39.238z" fill="#403742"/></svg>